<svg width="168" height="100" viewBox="0 0 168 100" fill="none" xmlns="http://www.w3.org/2000/svg">
<g clip-path="url(#clip0_14_33)">
<path d="M66.197 66.9571C87.4606 46.7964 105.572 23.3422 120.829 -3.68113C146.498 -49.1568 192.223 -92.5032 240.154 -116.79C242.518 -117.993 244.771 -120.571 245.181 -122.554C245.593 -124.539 244.009 -125.176 241.643 -123.978C190.201 -97.9065 141.104 -51.3452 113.505 -2.4593C85.1207 47.8218 46.1087 84.8138 -5.75936 110.616C-8.12111 111.79 -10.3879 114.364 -10.8304 116.364C-11.2711 118.362 -9.71352 119.029 -7.35376 117.857C20.517 103.989 44.931 87.1201 66.197 66.9571Z" fill="white"/>
<path d="M265.441 -98.8777C213.996 -72.802 164.898 -26.2406 137.303 22.6414C108.919 72.9301 69.9031 109.918 18.039 135.717C15.6772 136.891 13.4087 139.463 12.9699 141.463C12.5274 143.463 14.085 144.13 16.4446 142.958C44.3133 129.092 68.7275 112.226 89.9931 92.0636C111.255 71.901 129.368 48.4482 144.628 21.4198C170.291 -24.0539 216.019 -67.3972 263.952 -91.6893C266.316 -92.8925 268.571 -95.4719 268.981 -97.4551C269.392 -99.438 267.807 -100.076 265.441 -98.8777Z" fill="white"/>
<path d="M289.24 -73.7771C237.798 -47.6979 188.702 -1.13837 161.102 47.7419C132.725 98.0229 93.7185 135.013 41.8377 160.817C39.4761 161.992 37.2091 164.565 36.7686 166.564C36.3262 168.564 37.8837 169.231 40.2435 168.058C68.1157 154.192 92.5335 137.323 113.796 117.16C135.059 96.9996 153.171 73.5453 168.424 46.5222C194.097 1.04631 239.818 -42.2967 287.751 -66.5888C290.115 -67.792 292.37 -70.3714 292.78 -72.3544C293.19 -74.3375 291.606 -74.9752 289.24 -73.7771Z" fill="white"/>
</g>
<defs>
<clipPath id="clip0_14_33">
<rect width="168" height="100" fill="white"/>
</clipPath>
</defs>
</svg>
