<svg width="222" height="140" viewBox="0 0 222 140" fill="none" xmlns="http://www.w3.org/2000/svg">
<g clip-path="url(#clip0_14_39)">
<path d="M82.197 60.2428C103.461 40.0821 121.572 16.6279 136.829 -10.3954C162.498 -55.8711 208.223 -99.2175 256.154 -123.504C258.518 -124.708 260.771 -127.285 261.181 -129.268C261.593 -131.253 260.009 -131.891 257.643 -130.693C206.201 -104.621 157.104 -58.0594 129.505 -9.17358C101.121 41.1075 62.1087 78.0996 10.2406 103.902C7.87889 105.076 5.61208 107.65 5.1696 109.65C4.72894 111.648 6.28648 112.315 8.64624 111.143C36.517 97.2749 60.931 80.4059 82.197 60.2428Z" fill="white"/>
<path d="M281.441 -105.592C229.996 -79.5163 180.898 -32.9548 153.303 15.9273C124.919 66.2158 85.9031 103.204 34.039 129.002C31.6772 130.177 29.4087 132.749 28.9699 134.749C28.5274 136.749 30.085 137.416 32.4446 136.243C60.3133 122.378 84.7275 105.512 105.993 85.3492C127.255 65.1867 145.368 41.7339 160.628 14.7056C186.291 -30.7682 232.019 -74.1115 279.952 -98.4036C282.316 -99.6068 284.571 -102.186 284.981 -104.169C285.392 -106.152 283.807 -106.79 281.441 -105.592Z" fill="white"/>
<path d="M305.24 -80.4914C253.798 -54.4121 204.702 -7.85265 177.102 41.0277C148.725 91.3086 109.719 128.299 57.8377 154.103C55.4761 155.277 53.2091 157.851 52.7686 159.849C52.3262 161.85 53.8837 162.516 56.2435 161.344C84.1157 147.478 108.534 130.609 129.796 110.446C151.059 90.2852 169.171 66.831 184.424 39.8079C210.097 -5.66796 255.818 -49.011 303.751 -73.3031C306.115 -74.5063 308.37 -77.0856 308.78 -79.0686C309.19 -81.0518 307.606 -81.6895 305.24 -80.4914Z" fill="white"/>
</g>
<defs>
<clipPath id="clip0_14_39">
<rect width="222" height="140" fill="white"/>
</clipPath>
</defs>
</svg>
