<svg width="111" height="162" viewBox="0 0 111 162" fill="none" xmlns="http://www.w3.org/2000/svg">
<g clip-path="url(#clip0_14_27)">
<path d="M188.82 517.74C169.187 471.953 146.181 432.405 119.537 398.454C74.6994 341.337 32.4865 242.876 9.38606 141.509C8.24135 136.509 5.71976 131.619 3.74689 130.597C1.77233 129.57 1.09553 132.796 2.23506 137.799C27.0336 246.59 72.3779 352.315 120.578 413.728C170.154 476.887 206.179 560.894 230.697 670.543C231.813 675.537 234.33 680.456 236.319 681.546C238.306 682.632 239.012 679.466 237.898 674.477C224.721 615.557 208.456 563.533 188.82 517.74Z" fill="white"/>
<path d="M27.9221 90.7105C52.7243 199.511 98.0686 305.236 146.265 366.639C195.848 429.8 231.869 513.813 256.384 623.457C257.499 628.45 260.015 633.371 262.005 634.453C263.994 635.545 264.699 632.377 263.585 627.39C250.409 568.474 234.148 516.45 214.512 470.657C194.877 424.873 171.874 385.32 145.224 351.367C100.389 294.26 58.1787 195.791 35.0731 94.4207C33.9284 89.4214 31.405 84.527 29.4321 83.5047C27.4594 82.4822 26.7826 85.7075 27.9221 90.7105Z" fill="white"/>
<path d="M53.6089 43.622C78.4147 152.415 123.757 258.135 171.952 319.55C221.528 382.695 257.551 466.689 282.071 576.368C283.187 581.359 285.705 586.278 287.692 587.364C289.681 588.456 290.386 585.288 289.272 580.301C276.096 521.377 259.831 469.345 240.196 423.56C220.562 377.771 197.557 338.223 170.913 304.282C126.075 247.157 83.8654 148.703 60.7599 47.3322C59.6151 42.3327 57.0918 37.4384 55.1191 36.4158C53.1462 35.3936 52.4694 38.6191 53.6089 43.622Z" fill="white"/>
</g>
<defs>
<clipPath id="clip0_14_27">
<rect width="108.006" height="159.587" fill="white" transform="matrix(0.999822 -0.0188427 0.0127811 0.999918 0 2.03513)"/>
</clipPath>
</defs>
</svg>
