<svg width="105" height="120" viewBox="0 0 105 120" fill="none" xmlns="http://www.w3.org/2000/svg">
<g clip-path="url(#clip0_14_45)">
<path d="M-6.80302 32.2429C14.4606 12.0821 32.5719 -11.3721 47.8291 -38.3954C73.4981 -83.871 119.223 -127.217 167.154 -151.504C169.518 -152.708 171.771 -155.285 172.181 -157.268C172.593 -159.253 171.009 -159.891 168.643 -158.693C117.201 -132.621 68.1036 -86.0594 40.5049 -37.1736C12.1207 13.1076 -26.8913 50.0996 -78.7594 75.9016C-81.1212 77.0758 -83.388 79.6499 -83.8305 81.6501C-84.2711 83.6482 -82.7136 84.3149 -80.3538 83.1426C-52.4831 69.275 -28.069 52.4059 -6.80302 32.2429Z" fill="white"/>
<path d="M192.441 -133.592C140.996 -107.516 91.898 -60.9548 64.3033 -12.0728C35.9185 38.2157 -3.0969 75.2042 -54.961 101.002C-57.3228 102.177 -59.5913 104.749 -60.0301 106.749C-60.4726 108.749 -58.915 109.416 -56.5554 108.243C-28.6867 94.3776 -4.27249 77.5119 16.9931 57.3493C38.255 37.1867 56.3685 13.7339 71.6277 -13.2945C97.291 -58.7681 143.019 -102.111 190.952 -126.404C193.316 -127.607 195.571 -130.186 195.981 -132.169C196.392 -134.152 194.807 -134.79 192.441 -133.592Z" fill="white"/>
<path d="M216.24 -108.491C164.798 -82.4121 115.702 -35.8526 88.102 13.0277C59.7251 63.3087 20.7184 100.299 -31.1624 126.103C-33.524 127.277 -35.7909 129.851 -36.2314 131.85C-36.6739 133.85 -35.1164 134.516 -32.7566 133.344C-4.88433 119.478 19.5334 102.609 40.7957 82.446C62.0593 62.2852 80.1707 38.831 95.4243 11.8079C121.097 -33.668 166.818 -77.0109 214.751 -101.303C217.115 -102.506 219.37 -105.086 219.78 -107.069C220.19 -109.052 218.606 -109.689 216.24 -108.491Z" fill="white"/>
</g>
<defs>
<clipPath id="clip0_14_45">
<rect width="105" height="120" fill="white"/>
</clipPath>
</defs>
</svg>
