<svg width="79" height="81" viewBox="0 0 79 81" fill="none" xmlns="http://www.w3.org/2000/svg">
<path d="M37.3655 2.05199C23.8012 2.74641 11.5486 10.6222 5.26894 22.6815C1.60677 29.7161 0.255453 37.7556 1.39101 45.6878C3.43501 59.9377 13.5301 71.9348 27.2987 76.4797C30.166 77.4281 33.056 78.0153 36.2469 78.3032C37.7856 78.4387 41.0674 78.4387 42.6061 78.3032C45.797 78.0153 48.687 77.4281 51.5542 76.4797C61.0361 73.3519 68.968 66.6053 73.584 57.7415C78.3193 48.6406 79.1596 37.9137 75.9006 28.1522C72.0965 16.7591 63.012 7.72594 51.5542 3.94331C47.0177 2.44719 42.1916 1.80357 37.3655 2.05199ZM42.7764 2.40767C46.0581 2.71819 48.7948 3.29404 51.7473 4.29334C58.3676 6.5347 64.2327 10.5488 68.7466 15.9348C73.3967 21.4733 76.3662 28.2425 77.2689 35.3279C77.5131 37.2362 77.5528 37.9419 77.5528 40.2115C77.5528 42.4811 77.5131 43.1868 77.2689 45.095C76.0652 54.5629 71.2278 63.2686 63.7274 69.4677C54.9439 76.7281 43.2136 79.6582 31.9034 77.4112C21.3655 75.3223 12.1731 68.8523 6.62593 59.6102C3.67916 54.7041 1.91337 49.2164 1.38533 43.3166C1.28313 42.1649 1.24907 39.3985 1.32288 38.1508C1.91904 27.9772 6.34204 18.8029 13.9332 11.9772C19.6167 6.87344 26.9297 3.53117 34.5152 2.58269C35.4464 2.46977 35.9914 2.41896 37.5812 2.30605C38.2966 2.25523 41.902 2.32863 42.7764 2.40767Z" fill="#BD0707"/>
<path d="M37.3825 4.59257C23.3925 5.38862 11.1852 14.1847 6.01843 27.1868C4.80338 30.2468 4.00281 33.6568 3.6735 37.1628C3.54291 38.6137 3.54291 41.8092 3.6735 43.2602C4.35484 50.5714 7.08017 57.2446 11.6338 62.7662C17.391 69.7443 25.3854 74.2439 34.3165 75.5199C36.1618 75.7852 37.2519 75.8586 39.4265 75.8586C42.044 75.8586 43.929 75.6892 46.2682 75.2376C57.6692 73.047 67.3839 65.3858 72.1646 54.8226C73.7885 51.2376 74.7934 47.3646 75.1795 43.2602C75.3101 41.8092 75.3101 38.6137 75.1795 37.1628C74.9013 34.1931 74.3335 31.5058 73.4137 28.7789C70.7906 21.0329 65.5046 14.3766 58.5039 9.99553C52.2242 6.0661 44.8091 4.16914 37.3825 4.59257ZM40.2157 8.1155C41.9645 8.20019 42.379 8.251 42.8673 8.43166C43.5997 8.70266 43.912 9.14303 43.912 9.89955C43.912 10.6222 43.6508 11.0005 42.9751 11.2771L42.6742 11.3957L42.9411 11.4916C43.2874 11.6102 43.6962 11.9715 43.8495 12.2821C44.0142 12.6152 44.0142 13.2701 43.8552 13.6991C43.7019 14.0943 43.3101 14.4613 42.8729 14.6307C42.3052 14.8396 41.7771 14.8621 39.7388 14.7662C38.7111 14.721 37.8538 14.6702 37.8424 14.6589C37.8197 14.6363 38.0184 9.9673 38.1036 8.60668L38.1377 8.03082H38.3421C38.4556 8.03082 39.2959 8.07034 40.2157 8.1155ZM35.1398 8.60668L35.3669 8.68008L35.3839 9.54951L35.401 10.4133L35.1852 10.3738C34.3733 10.2214 33.7317 10.1931 33.1299 10.2948C32.6189 10.3738 32.4428 10.4754 32.4428 10.6843C32.4428 10.961 32.6018 11.0174 33.6749 11.1077C34.2541 11.1586 34.7764 11.2319 34.9978 11.2997C35.9971 11.6102 36.4627 12.2651 36.4059 13.2813C36.3719 13.829 36.2186 14.1621 35.7984 14.5855C34.9524 15.4211 33.039 15.8389 31.4436 15.534L31.154 15.4775L31.1142 14.6307C31.0915 14.1621 31.0858 13.7669 31.1029 13.7499C31.1199 13.733 31.3357 13.7499 31.5741 13.7951C32.2668 13.9193 33.2945 13.8967 33.7828 13.7443C34.237 13.6032 34.3335 13.5241 34.3052 13.2983C34.2824 13.0668 34.1235 13.0216 33.0617 12.92C31.6366 12.7845 31.0347 12.5474 30.643 11.9659C30.3988 11.6046 30.3193 11.311 30.3193 10.7916C30.3137 9.99553 30.7622 9.36886 31.6196 8.96236C31.9659 8.79864 32.7267 8.59539 33.2661 8.51635C33.6068 8.46554 34.9184 8.52764 35.1398 8.60668ZM47.8978 9.13738C48.4258 9.3124 48.8516 9.47047 48.8516 9.49306C48.8516 9.50999 48.5564 10.3907 48.1987 11.4408C47.6479 13.0555 47.5457 13.4112 47.5457 13.6991C47.5457 13.9362 47.5798 14.1 47.6536 14.2185C47.8013 14.4557 48.2328 14.6589 48.6075 14.6646C48.8573 14.6646 48.9255 14.642 49.0844 14.4952C49.3286 14.2637 49.4251 14.0266 50.1235 11.9377C50.4585 10.9384 50.7537 10.1197 50.7764 10.1197C50.8332 10.1197 52.6387 10.7238 52.7069 10.7634C52.775 10.8085 51.4634 14.6589 51.2193 15.1106C50.4755 16.5107 48.8744 16.8664 47.0688 16.0252C45.8027 15.438 45.2122 14.4839 45.3825 13.3209C45.4563 12.8523 46.8076 8.82122 46.8928 8.82122C46.9212 8.82122 47.3754 8.96236 47.8978 9.13738ZM28.0653 12.3611L27.9517 14.7436L28.4968 15.8163C28.792 16.4091 29.0362 16.9059 29.0362 16.9228C29.0362 16.9511 27.2477 17.8544 27.1909 17.8544C27.1739 17.8544 26.9184 17.3632 26.6288 16.7591L26.1008 15.6695L24.1362 14.3202C23.0518 13.5806 22.166 12.9595 22.166 12.9426C22.166 12.9031 24.0227 11.9828 24.1022 11.9828C24.1362 11.9828 24.5905 12.3103 25.1128 12.7055C25.6352 13.1063 26.0894 13.4507 26.1291 13.4733C26.1859 13.5072 26.203 13.2531 26.1916 12.2256L26.1802 10.9384L27.1682 10.4528C27.7132 10.1875 28.1618 9.9673 28.1618 9.97295C28.1675 9.97859 28.122 11.0513 28.0653 12.3611ZM57.1696 13.3604C58.1916 13.7048 59.3044 14.5686 59.8665 15.4606L59.9801 15.6356L59.3953 16.0478C59.0773 16.2792 58.7367 16.522 58.6401 16.5954L58.4585 16.7309L58.2881 16.4317C58.0497 16.0026 57.5557 15.5283 57.1355 15.3195C56.6983 15.1049 56.2328 15.0823 55.8353 15.263C55.5117 15.4098 55.1142 15.8276 54.8985 16.251C54.7565 16.5276 54.7281 16.6518 54.7281 17.0075C54.7281 17.3745 54.7509 17.4705 54.8871 17.702C55.188 18.2101 55.8978 18.6166 56.7267 18.7633C56.9368 18.8029 57.1185 18.8367 57.1242 18.8424C57.1412 18.8537 56.5223 20.5192 56.4883 20.5587C56.4258 20.6151 55.7161 20.395 55.2278 20.1691C52.8829 19.0739 52.0028 17.2221 52.951 15.3477C53.4961 14.2693 54.3421 13.5241 55.3243 13.2531C55.8013 13.1233 56.6018 13.1741 57.1696 13.3604ZM23.9148 17.3971C24.863 17.9673 25.6295 18.4528 25.6181 18.4754C25.6068 18.498 25.2604 18.8029 24.846 19.1529C24.3236 19.5876 24.0624 19.7739 24 19.7514C23.9489 19.7288 23.6991 19.5876 23.4379 19.4352C23.1824 19.2771 22.9553 19.1529 22.9382 19.1529C22.8928 19.1529 21.3598 20.4401 21.2917 20.5361C21.2576 20.5813 21.3201 20.8015 21.4847 21.1797C21.6891 21.6709 21.7175 21.7669 21.6494 21.8346C21.303 22.1677 20.1448 23.0936 20.1164 23.0597C20.0596 22.9976 17.55 16.5559 17.5727 16.5333C17.5841 16.522 18.0497 16.1324 18.6061 15.6638L19.6224 14.817L20.9056 15.5905C21.6153 16.0139 22.9666 16.8269 23.9148 17.3971ZM62.8133 17.9729L63.4946 18.7746L62.4499 19.6554C61.8765 20.1409 61.4279 20.5418 61.4563 20.553C61.479 20.5643 62.166 20.4909 62.9836 20.4006C63.7956 20.3046 64.5223 20.2256 64.6018 20.2256C64.7324 20.2256 64.8687 20.3667 66.1575 21.8798C66.203 21.9306 66.2313 21.9871 66.22 21.9984C66.2086 22.0096 65.3115 22.0774 64.2214 22.1508L62.2512 22.2806L62.1944 22.4782C62.166 22.5912 61.9503 23.4662 61.7118 24.4317C61.479 25.3914 61.269 26.227 61.2406 26.2778C61.2122 26.3512 61.0305 26.1705 60.4003 25.4366L59.6054 24.4994L60.0482 22.9468C60.2981 22.0943 60.4854 21.3886 60.4741 21.3717C60.457 21.3604 59.9971 21.7386 59.4407 22.2072C58.6969 22.8396 58.413 23.0541 58.3563 23.0146C58.3108 22.9864 57.9986 22.6363 57.6522 22.2298L57.0277 21.5015L57.181 21.3491C57.3967 21.1458 62.0809 17.1769 62.1093 17.1769C62.1206 17.1769 62.4386 17.5382 62.8133 17.9729ZM42.0951 17.9391C46.2626 18.4415 50.0837 19.9659 53.3655 22.4331C55.1369 23.7598 57.039 25.7132 58.3165 27.5142C60.2526 30.2411 61.5528 33.3124 62.1604 36.5982C62.4443 38.1169 62.5067 38.8678 62.5067 40.7478C62.5067 43.0682 62.3364 44.4571 61.797 46.5065C60.7296 50.6166 58.6685 54.1338 55.5741 57.1487C51.8438 60.7789 47.33 62.9186 42.0383 63.5679C40.8744 63.709 38.0355 63.709 36.8715 63.5679C32.863 63.0767 29.3428 61.7386 26.1405 59.4973C24.3463 58.2439 22.3648 56.3357 21.0475 54.5911C18.5323 51.2771 17.0333 47.5509 16.5053 43.3166C16.4315 42.6899 16.4031 42.0859 16.4031 40.7478C16.4031 39.4098 16.4315 38.8057 16.5053 38.179C16.9709 34.4415 18.203 31.071 20.1959 28.1014C21.1781 26.6335 22.0525 25.5947 23.3925 24.2905C27.3272 20.4684 32.2555 18.2835 37.9219 17.8318C38.5976 17.781 41.3626 17.8487 42.0951 17.9391ZM16.9482 21.6427C18.2427 22.9807 19.3044 24.0929 19.3158 24.1155C19.3215 24.1381 19.0717 24.5784 18.7594 25.0866C18.3335 25.781 18.1632 26.0068 18.0894 25.9899C18.0383 25.9842 17.1015 25.6963 16.0057 25.3576C14.9155 25.0245 14.0184 24.7535 14.0071 24.7591C14.0014 24.7704 14.6714 25.4705 15.4947 26.323C16.4599 27.3223 16.9879 27.9038 16.9652 27.9602C16.9027 28.124 15.8921 29.7217 15.8353 29.7443C15.7729 29.7669 9.35129 27.8247 9.28883 27.7626C9.26044 27.7401 9.65221 27.0739 10.2427 26.1423L10.4414 25.8262L12.2583 26.6166C13.2576 27.0513 14.1377 27.4295 14.2172 27.4578C14.2966 27.4916 13.6778 26.8311 12.8431 26.0012C12.0028 25.1656 11.3215 24.4655 11.3215 24.4373C11.3215 24.3696 12.5252 22.4274 12.5649 22.4274C12.5876 22.4274 13.5188 22.7323 14.643 23.1049C15.9773 23.5453 16.6472 23.7429 16.5734 23.6751C16.511 23.6187 15.7729 23.0089 14.9382 22.3202C13.8822 21.4507 13.4223 21.0386 13.445 20.9821C13.5017 20.8297 14.5181 19.2094 14.5578 19.2094C14.5749 19.2094 15.6536 20.3046 16.9482 21.6427ZM67.3272 24.6801C68.3094 25.16 69.1724 26.8029 69.3201 28.474L69.3598 28.8974L68.5649 29.1063C68.1277 29.2192 67.7303 29.3152 67.6849 29.3152C67.6224 29.3152 67.5997 29.191 67.5713 28.7902C67.5316 28.1917 67.3726 27.5368 67.1568 27.0569C66.9751 26.6504 66.8559 26.5319 66.6401 26.5601C66.3846 26.5883 66.3563 26.8424 66.5039 27.6836C66.572 28.0675 66.6401 28.5361 66.6572 28.7281C66.731 29.4507 66.4641 30.2581 66.0383 30.5799C65.7374 30.8113 65.2491 31.0089 64.88 31.0428C64.017 31.1331 63.154 30.5799 62.5351 29.5467C62.0638 28.7563 61.655 27.3844 61.6948 26.7125L61.7118 26.4133L62.5067 26.1988C62.9439 26.0802 63.313 25.9842 63.33 25.9842C63.347 25.9842 63.3924 26.2665 63.4265 26.6053C63.5117 27.3674 63.6763 27.9998 63.9205 28.4684C64.1476 28.92 64.3463 29.0781 64.545 28.9878C64.6245 28.9539 64.704 28.8579 64.7267 28.7789C64.7438 28.6998 64.704 28.2764 64.6359 27.836C64.4712 26.8029 64.4712 26.1197 64.6416 25.6794C65.0276 24.6462 66.2995 24.172 67.3272 24.6801ZM9.41374 41.0922C10.044 41.2559 10.8673 41.7415 11.3669 42.2552L11.6054 42.5036L11.2817 42.5996C10.8218 42.7408 10.2143 43.0456 9.84526 43.3223C9.67492 43.4521 9.53298 43.5368 9.52162 43.5029C9.51027 43.4747 9.40807 43.294 9.28883 43.0964C8.89707 42.4359 8.21005 41.9108 7.40381 41.6511C7.23347 41.5947 7.06882 41.5326 7.04043 41.51C6.98933 41.4592 7.31296 41.239 7.60253 41.1261C8.07946 40.9341 8.75512 40.9228 9.41374 41.0922ZM71.2619 41.0922C71.6025 41.2051 71.9886 41.4479 71.9262 41.51C71.8978 41.5326 71.7331 41.5947 71.5628 41.6511C70.7565 41.9108 70.0695 42.4359 69.6778 43.0964C69.5585 43.294 69.4563 43.4747 69.445 43.5029C69.4336 43.5368 69.2917 43.4521 69.1213 43.3223C68.7523 43.0456 68.1448 42.7408 67.6849 42.5996L67.3612 42.5036L67.5997 42.2552C68.2413 41.6003 69.1668 41.1204 70.0582 40.9849C70.3421 40.9398 70.9723 40.9962 71.2619 41.0922ZM7.09721 42.0407C8.02836 42.3569 8.61885 42.8142 8.9652 43.5029L9.16392 43.8925L8.90842 44.1748C8.52801 44.5982 8.15328 45.2249 7.94888 45.8007L7.76719 46.3145L7.45491 45.9871C6.42155 44.9031 5.99572 43.5029 6.36477 42.419C6.45562 42.148 6.59756 41.9052 6.66002 41.9052C6.68273 41.9052 6.88145 41.9673 7.09721 42.0407ZM72.511 42.1988C73.039 43.2489 72.6245 44.824 71.5117 45.9871L71.1994 46.3145L71.0177 45.8007C70.8133 45.2249 70.4386 44.5982 70.0582 44.1748L69.8027 43.8925L70.0014 43.5029C70.2342 43.04 70.7111 42.5545 71.171 42.3286C71.5401 42.1367 72.1873 41.9108 72.2952 41.9221C72.3406 41.9278 72.4372 42.052 72.511 42.1988ZM13.3825 43.1077C13.5585 43.1868 13.7062 43.2771 13.7062 43.3053C13.7062 43.4295 13.3484 44.378 13.2122 44.6095C12.8431 45.2475 12.1391 45.733 11.3101 45.9362C10.7934 46.0605 10.396 46.2411 9.99288 46.5403C9.43078 46.9581 9.11282 47.4606 8.74377 48.4825L8.70402 48.5954L8.61318 48.4825C8.21005 47.9631 8.08514 47.0372 8.30658 46.2298C8.52233 45.4451 8.93113 44.7958 9.59543 44.1578C10.22 43.565 10.7026 43.2771 11.435 43.0513C12.0426 42.865 12.9056 42.8876 13.3825 43.1077ZM67.4691 43.0343C68.1902 43.2376 68.7352 43.5537 69.3712 44.1578C70.0355 44.7958 70.4443 45.4451 70.66 46.2298C70.8814 47.0372 70.7565 47.9631 70.3534 48.4825L70.2626 48.5954L70.2228 48.4825C69.8538 47.4606 69.5358 46.9581 68.9737 46.5403C68.5706 46.2411 68.1731 46.0605 67.6565 45.9362C66.8275 45.733 66.1235 45.2475 65.7544 44.6095C65.6181 44.3837 65.2604 43.4352 65.2604 43.3053C65.2604 43.2432 65.6749 43.04 65.9247 42.9835C66.3222 42.8876 67.0262 42.9158 67.4691 43.0343ZM14.4272 44.1465C15.1994 45.7895 13.8651 48.2679 11.7757 49.0696C11.1966 49.2955 10.5209 49.3858 10.0667 49.3067C9.64086 49.2334 9.08443 48.9906 9.1185 48.8946C9.13553 48.8551 9.21502 48.6123 9.30019 48.3526C9.49323 47.7824 9.82254 47.2743 10.203 46.9751C10.5947 46.6702 10.8162 46.5686 11.4407 46.3935C12.122 46.2016 12.4627 46.0379 12.8772 45.7048C13.3144 45.3547 13.6891 44.8015 13.9333 44.1578C14.149 43.5763 14.1547 43.5763 14.4272 44.1465ZM65.0333 44.1635C65.2775 44.8015 65.6522 45.3547 66.0894 45.7048C66.5039 46.0379 66.8445 46.2016 67.5259 46.3935C68.1504 46.5686 68.3719 46.6702 68.7636 46.9751C69.144 47.2743 69.4734 47.7824 69.6664 48.3526C69.7516 48.6123 69.8311 48.8551 69.8481 48.8946C69.8822 48.9906 69.3257 49.2334 68.8999 49.3067C68.4457 49.3858 67.77 49.2955 67.1909 49.0696C65.9645 48.601 64.8971 47.4775 64.4826 46.2242C64.3009 45.6653 64.2782 44.8071 64.4315 44.3893C64.5223 44.1578 64.7892 43.6554 64.8289 43.6554C64.8403 43.6554 64.9311 43.8812 65.0333 44.1635ZM56.3066 61.2983C56.5507 61.654 56.7438 61.9645 56.7438 61.9927C56.7438 62.0153 56.1817 62.4161 55.4946 62.8734C54.8076 63.3364 54.2342 63.7316 54.2171 63.7542C54.2001 63.7824 54.4954 64.2792 54.6203 64.426C54.6316 64.4373 55.0461 64.1832 55.5344 63.8558C56.0284 63.534 56.4996 63.2235 56.5791 63.1727L56.7267 63.0767L57.1582 63.7259C57.4024 64.0816 57.5954 64.3978 57.5954 64.4204C57.5954 64.4486 57.1696 64.7591 56.6472 65.1091C56.1192 65.4592 55.6707 65.7697 55.6423 65.7923C55.5685 65.86 56.017 66.5262 56.1135 66.4923C56.1533 66.4754 56.7324 66.0971 57.4024 65.6455C58.0667 65.1938 58.6345 64.8269 58.6629 64.8269C58.7083 64.8269 59.5827 66.0859 59.5827 66.148C59.5827 66.1818 55.3811 69.0103 55.2959 69.0386C55.2448 69.0555 51.6054 63.7429 51.5656 63.5904C51.5486 63.5396 55.7388 60.6603 55.841 60.6547C55.858 60.649 56.0681 60.9426 56.3066 61.2983ZM23.9546 61.4112C24.7892 61.6257 25.8623 62.3089 26.4698 63.0146C26.8559 63.4549 27.0717 63.788 27.0206 63.8614C26.9865 63.9235 25.6011 64.8833 25.5557 64.8833C25.5387 64.8833 25.4478 64.7422 25.3513 64.5728C25.1128 64.155 24.5791 63.6356 24.1987 63.4493C23.7956 63.2517 23.3186 63.2404 22.9212 63.4154C22.3932 63.6469 21.8594 64.3921 21.7856 64.9962C21.7289 65.4592 21.8538 65.764 22.2455 66.1536C22.6487 66.5545 23.0802 66.7746 23.6877 66.8988C23.9262 66.9497 24.1362 67.0005 24.1419 67.0061C24.1533 67.0118 24.017 67.4013 23.8353 67.8699C23.5798 68.5305 23.4833 68.7224 23.4038 68.7224C23.2392 68.7224 22.4045 68.4006 22.0014 68.1804C20.4968 67.3618 19.6678 66.227 19.6621 64.9906C19.6565 64.4034 19.7587 64.0082 20.0709 63.4098C20.599 62.4048 21.4563 61.654 22.3534 61.4112C22.7509 61.3096 23.5401 61.3039 23.9546 61.4112ZM51.1398 64.7252C51.2874 65.1317 51.3896 65.4818 51.3669 65.5043C51.3442 65.5269 50.6912 65.781 49.9191 66.0689C49.1412 66.3568 48.511 66.6166 48.511 66.6504C48.511 66.7577 48.7551 67.3674 48.7949 67.3674C48.8176 67.3674 49.1128 67.2658 49.4535 67.136C49.7942 67.0061 50.3052 66.8198 50.589 66.7182L51.1114 66.5319L51.401 67.294C51.5599 67.7175 51.6849 68.0675 51.6792 68.0732C51.6678 68.0788 51.1625 68.2708 50.555 68.4966C49.9475 68.7224 49.4308 68.9257 49.4024 68.9426C49.3399 69.0047 49.6238 69.7104 49.7147 69.7048C49.7544 69.6991 50.4244 69.462 51.1966 69.1741C51.9687 68.8861 52.6103 68.6603 52.6217 68.6716C52.6558 68.7224 53.1668 70.1169 53.1668 70.1677C53.1668 70.2411 48.3406 72.0195 48.2839 71.9631C48.2612 71.9348 47.7218 70.5403 47.0972 68.8636C46.2115 66.5149 45.9673 65.8036 46.0241 65.7697C46.1149 65.7076 50.731 63.9856 50.8105 63.9856C50.8445 63.98 50.9922 64.3131 51.1398 64.7252ZM30.0979 64.601C31.2619 64.8777 32.2498 65.589 32.704 66.4754C33.1469 67.3392 33.0844 68.5813 32.5564 69.6257C31.8126 71.088 30.3704 71.7824 28.7636 71.4549C27.5486 71.2065 26.4868 70.4669 26.0326 69.5467C25.8055 69.0894 25.7487 68.7958 25.7431 68.1804C25.7374 66.402 26.9922 64.793 28.5819 64.5276C28.968 64.4655 29.6664 64.4994 30.0979 64.601ZM45.4393 66.4472C45.4734 66.7238 45.5188 67.0964 45.5358 67.2884L45.5699 67.6271L44.105 67.8078C43.2931 67.9094 42.6231 67.9885 42.6061 67.9885C42.589 67.9885 42.5947 68.1917 42.6288 68.4401C42.6912 68.9765 42.5436 68.9426 43.9971 68.7563C44.5592 68.6829 45.0248 68.6264 45.0305 68.6321C45.0646 68.6603 45.2349 70.2468 45.2065 70.275C45.1895 70.2919 44.6728 70.371 44.0482 70.45C43.4294 70.529 42.9184 70.5968 42.9127 70.6024C42.9013 70.6081 42.9581 71.0993 43.0376 71.6864C43.1114 72.2792 43.1682 72.7986 43.1568 72.8438C43.1455 72.9059 42.9184 72.9567 42.1519 73.0527C41.6068 73.1204 41.1412 73.1543 41.1242 73.1374C41.0788 73.0809 40.2725 66.6222 40.3066 66.5883C40.3406 66.5488 44.8545 65.9729 45.1668 65.9616L45.3712 65.956L45.4393 66.4472ZM37.0589 66.3738C38.3988 66.5149 39.506 66.6391 39.523 66.6561C39.5628 66.6956 39.4208 68.2312 39.3754 68.282C39.3527 68.3103 38.7111 68.2651 37.9503 68.1861C37.1838 68.107 36.5195 68.0449 36.4627 68.0449C36.3889 68.0449 36.3605 68.1296 36.3321 68.4684C36.3094 68.7055 36.3037 68.9087 36.3151 68.9257C36.3321 68.9369 36.8488 68.9991 37.4734 69.0668C38.0922 69.1289 38.6089 69.191 38.6203 69.2023C38.643 69.2249 38.4783 70.817 38.4499 70.8452C38.4386 70.8509 37.9333 70.8113 37.3314 70.7492C36.7239 70.6871 36.2015 70.6476 36.1618 70.6589C36.122 70.6758 36.0596 71.1049 35.9971 71.7767C35.9347 72.3808 35.8722 72.889 35.8552 72.9115C35.8098 72.9624 33.9077 72.7873 33.8396 72.7252C33.8112 72.697 33.9247 71.342 34.1178 69.3999C34.4017 66.6222 34.4641 66.1254 34.5436 66.1254C34.589 66.1254 35.7246 66.2383 37.0589 66.3738Z" fill="#BD0707"/>
<path d="M40.0851 10.2214C40.0681 10.5488 40.0567 10.8198 40.0624 10.8311C40.0794 10.848 40.9538 10.865 41.2263 10.8593C41.3399 10.8537 41.4762 10.7972 41.584 10.6956C41.726 10.5714 41.76 10.498 41.7657 10.3061C41.7714 9.82052 41.567 9.69631 40.6415 9.65115L40.1248 9.62857L40.0851 10.2214Z" fill="#BD0707"/>
<path d="M39.9943 12.2764C39.9943 12.4119 39.9772 12.6885 39.9545 12.8974L39.9205 13.2813H40.6699C41.5613 13.2813 41.7146 13.2305 41.8168 12.8861C41.902 12.6039 41.8055 12.3498 41.5613 12.2256C41.4194 12.1522 40.6699 12.0562 40.0965 12.0449C40.017 12.0393 39.9943 12.0901 39.9943 12.2764Z" fill="#BD0707"/>
<path d="M19.6337 16.9849C19.9233 17.7415 20.4968 19.04 20.5308 19.0287C20.6046 19.0005 21.5358 18.227 21.5415 18.1875C21.5415 18.1649 21.1043 17.8657 20.5706 17.5213C20.0369 17.1713 19.611 16.9341 19.6337 16.9849Z" fill="#BD0707"/>
<path d="M38.2626 19.1303C38.1377 19.1416 37.7175 19.1811 37.3257 19.215C34.8332 19.4239 32.0511 20.2199 29.6891 21.3999C27.4805 22.4952 25.198 24.1945 23.5628 25.956C20.2356 29.541 18.2938 33.8036 17.7828 38.6307C17.6919 39.5283 17.6919 41.9504 17.7828 42.865C18.2824 47.6638 20.2413 51.9659 23.5571 55.534C25.2207 57.3237 27.4691 58.9948 29.7516 60.1296C31.9545 61.2249 34.4073 61.9475 37.0418 62.2693C38.1831 62.4048 40.7154 62.4048 41.868 62.2637C46.5635 61.6991 50.5606 59.9038 54.0979 56.7648C55.9602 55.1106 57.7601 52.7506 58.9467 50.3964C60.088 48.1324 60.8488 45.5072 61.127 42.865C61.2235 41.956 61.2235 39.5396 61.127 38.6307C60.5024 32.6857 57.6408 27.4916 52.9169 23.7372C52.3321 23.2743 50.8729 22.2919 50.1859 21.908C47.6252 20.4684 44.633 19.5199 41.6692 19.2094C41.0787 19.1473 38.66 19.0908 38.2626 19.1303ZM46.6203 25.16C47.3584 25.3576 48.0056 25.764 48.6586 26.4528C49.3626 27.1924 49.7601 28.0393 49.7601 28.8014C49.7544 29.6427 49.2661 30.1056 48.3861 30.1056C46.66 30.1 44.5876 27.9433 44.7239 26.2891C44.7977 25.3463 45.5756 24.8833 46.6203 25.16ZM27.0262 29.7161C27.5429 29.8741 28.2981 30.258 28.7466 30.5855C29.1668 30.896 29.6437 31.3251 29.7232 31.4662C29.7686 31.5566 29.5074 31.98 28.8204 32.9228L28.7182 33.0583L28.3548 32.6801C27.3158 31.6017 26.2881 31.2856 25.3229 31.7316C24.2044 32.251 23.6252 33.7415 23.9829 35.1642C24.21 36.0562 24.9141 37.1345 25.6806 37.7556C25.9418 37.9701 26.0269 38.0661 26.0042 38.1508C25.9418 38.4444 25.4251 39.7993 25.374 39.8106C25.2831 39.8332 24.6132 39.3138 24.1022 38.8283C22.7963 37.5806 21.9957 35.8925 21.9957 34.3625C21.9957 33.4705 22.2626 32.5276 22.7395 31.7259C23.0347 31.2348 23.9148 30.3145 24.335 30.0604C25.1753 29.558 26.1178 29.4394 27.0262 29.7161ZM34.1064 30.4105C37.973 31.6977 44.0993 36.7563 48.528 42.3117C48.7665 42.6109 48.9652 42.8819 48.9652 42.9101C48.9652 42.9948 47.9659 43.4634 47.3697 43.661C46.1433 44.0675 44.951 44.2086 43.611 44.107C41.4875 43.9489 40.4826 43.5425 40 42.6448C39.7047 42.0915 39.6536 41.7245 39.5968 39.7598C39.5571 38.2976 39.5287 37.8798 39.4265 37.4225C39.2221 36.4684 38.8814 35.7796 38.2739 35.0682C36.9851 33.5664 35.083 32.6405 33.0731 32.5389L32.369 32.5051L32.2668 32.2058C32.1249 31.7937 32.0227 31.071 32.0681 30.8283C32.1078 30.5968 32.2895 30.3484 32.4655 30.2693C32.6927 30.1734 33.6295 30.2524 34.1064 30.4105ZM31.188 32.8156C32.4201 36.4966 37.1384 42.3117 42.4925 46.7605C45.2576 49.0583 47.9318 50.7182 49.8736 51.3561L50.589 51.5876L50.3392 51.7796C49.1412 52.6772 47.3243 53.7838 45.8311 54.5234C43.083 55.884 40.7154 56.5389 38.2626 56.6236C36.6955 56.6744 35.5145 56.5107 34.1518 56.0647C31.188 55.088 28.4457 52.6716 27.0149 49.781C26.1689 48.076 25.8055 46.3145 25.8736 44.3046C25.9304 42.7238 26.1632 41.5043 26.7367 39.788C27.2647 38.2016 27.8665 36.8861 28.7863 35.294C29.3882 34.2383 30.8758 32.0252 30.9382 32.0929C30.9439 32.0986 31.0575 32.426 31.188 32.8156ZM53.3995 33.335C54.8814 34.0689 55.858 35.6667 56.2725 38.0379C56.3974 38.7492 56.4144 41.0132 56.3009 41.9052C56.1817 42.848 55.9091 44.1127 55.6593 44.8861C54.995 46.9073 54.1149 48.4091 52.7977 49.7358C52.1618 50.3794 52.0993 50.4246 51.8438 50.4585C51.1852 50.5545 50.1575 50.2552 48.7381 49.5495C48.21 49.2842 47.7729 49.0527 47.7729 49.0301C47.7729 49.0075 48.0454 48.9059 48.3804 48.8043C49.198 48.5502 49.9474 48.1945 50.6969 47.6977C51.3385 47.2743 52.264 46.4557 52.5536 46.0604C52.8942 45.5919 52.6671 45.0668 52.1164 45.0668C51.8665 45.0668 51.8438 45.0837 51.3328 45.5862C50.1632 46.7605 48.7778 47.534 47.2789 47.8558C46.1433 48.1042 46.2966 48.1324 45.4734 47.534C44.7523 47.0146 43.2363 45.8233 42.8048 45.4394L42.5777 45.2362L43.0035 45.2813C43.2363 45.3039 43.9404 45.3209 44.5649 45.3209C45.5131 45.3152 45.8083 45.2983 46.3421 45.191C48.1135 44.841 49.8339 44.0054 50.9127 42.9835C51.4804 42.4415 51.8495 41.956 52.1959 41.2842C52.8318 40.0477 53.0589 38.721 52.8545 37.3886C52.7352 36.5869 52.5876 36.1578 52.0766 35.1416C51.6905 34.3794 51.6054 34.1649 51.5883 33.8939C51.5599 33.4931 51.6167 33.3745 51.929 33.2164C52.3094 33.0245 52.8545 33.064 53.3995 33.335ZM33.8623 33.8374C35.5543 34.1423 37.2179 35.3166 37.8992 36.6829C38.2626 37.4112 38.3477 37.9475 38.3818 39.7034L38.4102 41.1995L37.8878 40.6631C36.7977 39.5396 35.5088 37.908 34.396 36.2312C33.8396 35.3844 32.8971 33.8262 32.8971 33.7415C32.8971 33.7076 33.4137 33.7584 33.8623 33.8374Z" fill="black"/>
<path d="M45.5358 25.6003C45.2462 25.7697 45.1042 26.0407 45.1042 26.4246C45.1042 27.4916 46.183 28.9031 47.4605 29.4959C47.8182 29.6596 47.9091 29.6765 48.3803 29.6822C48.8573 29.6822 48.914 29.6709 49.0503 29.541C49.2831 29.3265 49.3626 29.1289 49.3626 28.7619C49.3626 27.7401 48.3519 26.3851 47.1255 25.781C46.6884 25.5665 46.5407 25.5213 46.183 25.4987C45.8083 25.4761 45.7288 25.4874 45.5358 25.6003Z" fill="black"/>
<path d="M25.743 29.9758C25.1241 30.0435 24.545 30.3427 23.9715 30.8847C23.2334 31.5848 22.7735 32.33 22.5294 33.2108C22.3874 33.7245 22.3818 34.9609 22.5237 35.4691C22.8928 36.8015 23.699 38.0209 24.8289 38.9525L25.1979 39.2517L25.3853 38.7323L25.5727 38.2129L25.1866 37.8403C23.8126 36.5305 23.2278 34.9384 23.5798 33.4705C23.8126 32.5107 24.3463 31.7711 25.056 31.4154C26.1461 30.8734 27.2476 31.1106 28.3605 32.1268L28.6841 32.4204L28.985 31.9856L29.2859 31.5509L28.9737 31.2743C28.298 30.6702 27.3725 30.179 26.606 30.0209C26.2313 29.9362 26.1291 29.9362 25.743 29.9758Z" fill="black"/>
<path d="M32.528 30.7492C32.4485 30.8678 32.4371 30.9694 32.4655 31.2517C32.4826 31.4493 32.5337 31.7203 32.5734 31.8614L32.6472 32.1099L33.1809 32.1437C35.0376 32.2623 36.8601 33.0809 38.1774 34.3964C39.5571 35.7626 39.9886 37.016 39.9943 39.6187C40 41.8939 40.1703 42.5545 40.8743 43.0343C41.4251 43.4126 42.22 43.6102 43.611 43.7118C45.2008 43.8304 46.6657 43.5933 48.017 42.9835L48.4088 42.8085L48.2214 42.5714C47.1029 41.143 45.8821 39.788 44.2583 38.179C41.0447 34.9948 37.9673 32.6406 35.3669 31.3759C34.2484 30.8339 33.7374 30.6645 33.1185 30.6307C32.6359 30.6024 32.6245 30.6024 32.528 30.7492Z" fill="black"/>
<path d="M30.4442 33.4197C28.65 35.9715 27.1795 39.1162 26.6287 41.5777C26.1916 43.5142 26.1461 45.3886 26.4868 47.071C27.1625 50.3907 29.7572 53.6088 33.0163 55.1727C34.6912 55.9743 36.2923 56.2962 38.2625 56.2284C40.1248 56.1607 41.7203 55.8106 43.7416 55.0202C45.5415 54.3145 47.7331 53.1289 49.3569 51.9885C49.6579 51.7739 49.7033 51.7231 49.6124 51.6949C49.1128 51.5199 48.5337 51.2658 47.858 50.9158C42.6174 48.2284 35.4918 41.3575 32.1987 35.8247C31.7558 35.0795 31.2164 34.0237 30.995 33.4648C30.9098 33.2446 30.8246 33.047 30.7962 33.0245C30.7735 32.9962 30.6146 33.1769 30.4442 33.4197ZM36.5876 43.2093C38.0014 43.5707 38.9666 44.5135 39.3811 45.9532C39.4889 46.3201 39.5116 46.5234 39.506 47.1839C39.506 47.8558 39.4776 48.059 39.3527 48.5389C38.8928 50.2439 37.6209 51.8812 36.0425 52.7902C35.0432 53.366 33.7714 53.6878 32.7324 53.6314C32.0397 53.5918 31.6366 53.4846 30.9779 53.1628C29.1554 52.2764 28.4286 50.0971 29.1837 47.7993C29.5755 46.5911 30.4499 45.3604 31.4719 44.5587C33.1014 43.2827 34.9467 42.7972 36.5876 43.2093Z" fill="black"/>
<path d="M34.8786 43.486C32.7381 43.7457 30.6316 45.366 29.7402 47.4437C29.0759 49.0019 29.144 50.6053 29.9219 51.7457C30.2682 52.2482 30.5976 52.5248 31.2221 52.8353C31.9034 53.1684 32.4088 53.2757 33.1809 53.2362C35.8438 53.095 38.2455 51.0795 38.9836 48.3696C39.0858 48.0026 39.1086 47.7655 39.1086 47.1275C39.1029 46.4274 39.0858 46.2863 38.9553 45.8798C38.484 44.4571 37.2746 43.5707 35.6792 43.4691C35.4464 43.4521 35.083 43.4634 34.8786 43.486ZM36.1902 44.7619C36.2242 44.7958 36.2072 44.92 36.1277 45.1233C36.0596 45.2926 35.9687 45.6596 35.9233 45.9419C35.8268 46.5347 35.7132 46.817 35.435 47.1275C35.1398 47.4663 34.7423 47.6582 34.1291 47.7542C33.4421 47.8615 33.1469 47.9631 32.7324 48.2284C31.8864 48.7704 31.4833 49.431 31.2846 50.594C31.1597 51.3054 31.1369 51.3392 30.9439 51.0908C30.3364 50.3004 30.3477 48.889 30.9723 47.6639C31.4663 46.6871 32.5223 45.6145 33.4364 45.1684C33.7601 45.0047 34.3449 44.8071 34.7196 44.7281C35.0433 44.666 36.1107 44.6829 36.1902 44.7619ZM37.5415 45.7274C38.149 46.6928 38.0355 48.0929 37.2349 49.4253C36.8829 50.0125 36.0312 50.8819 35.4407 51.2658C34.5777 51.8248 33.5954 52.1127 32.7835 52.0506C32.2498 52.0111 32.1362 51.9715 32.193 51.8473C32.335 51.5312 32.4428 51.136 32.4939 50.7408C32.5734 50.1819 32.7665 49.781 33.1015 49.4705C33.4308 49.1713 33.7374 49.0358 34.2654 48.9624C35.1739 48.8325 35.6508 48.6123 36.2242 48.0365C36.7352 47.5284 36.9567 47.088 37.0986 46.2807C37.269 45.3322 37.2803 45.3152 37.5415 45.7274Z" fill="black"/>
<path d="M34.5436 45.1854C33.6862 45.4056 33.039 45.7895 32.369 46.467C31.8239 47.0146 31.5798 47.3421 31.3016 47.9179C31.0006 48.5389 30.9098 48.9341 30.9098 49.6116L30.9155 50.1762L31.0688 49.7246C31.523 48.4091 32.5734 47.5735 34.0155 47.3759C34.5379 47.3025 34.924 47.1219 35.1624 46.8339C35.3725 46.5799 35.4747 46.3089 35.5599 45.7725C35.594 45.5524 35.6394 45.3096 35.6564 45.2193L35.6905 45.0668L35.3328 45.0725C35.1341 45.0725 34.7764 45.1233 34.5436 45.1854Z" fill="black"/>
<path d="M37.4165 46.7436C37.3938 46.8791 37.2746 47.1896 37.1497 47.4437C36.8715 48.0139 36.2412 48.6688 35.6962 48.9511C35.3158 49.1487 34.589 49.3576 34.2654 49.3576C33.8395 49.3632 33.2831 49.7302 33.0617 50.1593C33.0049 50.2778 32.9254 50.5601 32.897 50.7916C32.863 51.0174 32.8119 51.2941 32.7835 51.3957C32.7494 51.5029 32.7267 51.6102 32.7267 51.6384C32.7267 51.7231 33.6465 51.6272 34.0326 51.4973C34.782 51.2545 35.3498 50.9101 35.9687 50.3343C37.0645 49.3067 37.6834 47.8727 37.5074 46.7887L37.462 46.5065L37.4165 46.7436Z" fill="black"/>
<path d="M52.105 33.5608C51.8495 33.685 51.9517 34.1141 52.4173 34.9271C52.7523 35.5029 53.0134 36.1804 53.1838 36.9087C53.3427 37.6032 53.3541 38.9525 53.2008 39.6469C52.7012 41.9447 51.3442 43.5933 49.0503 44.7055C47.6877 45.3604 46.3648 45.6766 44.809 45.7274L43.7984 45.7612L44.4002 46.2355C44.7352 46.4952 45.286 46.913 45.6266 47.1557C46.325 47.6582 46.3534 47.6639 47.0347 47.5227C48.5223 47.2122 49.8736 46.467 51.0432 45.3096C51.6848 44.6829 51.8836 44.5869 52.3378 44.6829C52.9396 44.8128 53.2746 45.4733 53.0305 46.0548C52.9283 46.2919 52.1958 47.0598 51.6337 47.5114C50.8559 48.1325 49.7885 48.7478 49.022 49.0132L48.7097 49.1205L49.2775 49.3858C50.0894 49.7641 50.9467 50.0407 51.4407 50.0746L51.8552 50.1085L52.3207 49.6624C54.1887 47.8615 55.3981 45.3378 55.8353 42.323C55.9886 41.2898 56.0397 39.6469 55.9545 38.7718C55.7047 36.2651 54.7281 34.4416 53.2178 33.6907C52.8034 33.4818 52.3718 33.431 52.105 33.5608Z" fill="black"/>
<path d="M33.8793 34.673C34.8332 36.2934 36.4967 38.5516 37.7402 39.9236L38.007 40.2228V39.6977C38.007 38.9694 37.9105 37.9476 37.8026 37.5411C37.5926 36.7224 37.0078 35.9207 36.1845 35.3054C35.4804 34.7747 34.606 34.3738 33.8566 34.2383L33.5897 34.1875L33.8793 34.673Z" fill="black"/>
<path d="M8.18164 41.3914L7.97156 41.4253L8.29519 41.5947C8.76077 41.8375 9.40804 42.4585 9.65218 42.9102C9.66921 42.9384 10.8104 42.3286 10.8104 42.2891C10.8104 42.2722 10.6344 42.1367 10.413 41.9899C9.72599 41.5326 8.80051 41.2842 8.18164 41.3914Z" fill="white"/>
<path d="M70.0014 41.3971C69.5698 41.4648 68.9793 41.7076 68.5478 41.9955C68.3321 42.1367 68.1561 42.2722 68.1561 42.2891C68.1561 42.3286 69.2973 42.9384 69.3143 42.9102C69.5585 42.4585 70.2001 41.8431 70.6827 41.5834C70.9041 41.4648 70.9836 41.3971 70.9041 41.3971C70.836 41.3971 70.6713 41.3858 70.5351 41.3745C70.3988 41.3576 70.1603 41.3689 70.0014 41.3971Z" fill="white"/>
<path d="M6.71674 42.6222C6.59183 43.0569 6.63158 43.7288 6.80759 44.2199C6.97224 44.6772 7.0858 44.8861 7.3924 45.3096L7.58544 45.5749L7.82391 45.0837C7.96018 44.8071 8.19865 44.4119 8.35762 44.203C8.52228 43.9941 8.65287 43.7965 8.65287 43.7626C8.65287 43.6441 8.3633 43.2658 8.06238 42.9948C7.83527 42.7859 7.61951 42.6617 7.28452 42.5319C7.0347 42.4359 6.81894 42.3568 6.80759 42.3568C6.80191 42.3568 6.76217 42.4754 6.71674 42.6222Z" fill="white"/>
<path d="M71.6593 42.5375C71.3527 42.6561 71.1256 42.7916 70.9042 42.9948C70.6032 43.2658 70.3137 43.6441 70.3137 43.7626C70.3137 43.7965 70.4442 43.9941 70.6089 44.203C70.7679 44.4119 71.0064 44.8071 71.1426 45.0837L71.3811 45.5749L71.5741 45.3096C72.0738 44.6151 72.3066 44.0054 72.3179 43.3448C72.3236 42.9271 72.2214 42.3512 72.1362 42.3625C72.1192 42.3625 71.9035 42.4415 71.6593 42.5375Z" fill="white"/>
<path d="M11.611 43.4013C10.9751 43.582 10.4243 43.9207 9.81114 44.5305C9.3115 45.0217 9.20362 45.1628 8.97651 45.6314C8.83456 45.925 8.68694 46.2806 8.65855 46.4218C8.59042 46.7154 8.57338 47.5509 8.64152 47.5509C8.66423 47.5509 8.75507 47.4098 8.84592 47.2404C9.01057 46.9243 9.43641 46.4444 9.78843 46.1847C10.1177 45.9363 10.6401 45.7048 11.2022 45.5467C11.8268 45.3717 11.9971 45.2926 12.3321 45.0217C12.6444 44.7732 12.9226 44.3555 13.1099 43.8643L13.2519 43.486L13.0986 43.4183C12.8488 43.3166 11.963 43.3054 11.611 43.4013Z" fill="white"/>
<path d="M66.0553 43.3561C66.0099 43.3731 65.9134 43.4126 65.8396 43.4352L65.7147 43.486L65.8566 43.8643C66.044 44.3554 66.3222 44.7732 66.6345 45.0216C66.9694 45.2926 67.1398 45.3717 67.7643 45.5467C68.3264 45.7048 68.8488 45.9362 69.1781 46.1847C69.5301 46.4444 69.956 46.9243 70.1206 47.2404C70.2115 47.4098 70.3023 47.5509 70.3307 47.5509C70.3931 47.5509 70.3761 46.7154 70.308 46.4218C70.2796 46.2806 70.132 45.925 69.99 45.6314C69.7629 45.1628 69.655 45.0216 69.1554 44.5305C68.5308 43.9094 67.9801 43.5707 67.3271 43.4013C67.0092 43.3223 66.2313 43.294 66.0553 43.3561Z" fill="white"/>
<path d="M13.99 44.999C13.7004 45.558 13.1156 46.1169 12.5081 46.4105C12.2469 46.5403 11.8325 46.6984 11.5826 46.7605C11.3385 46.8226 11.0546 46.9186 10.9581 46.9694C10.3676 47.2686 9.94175 47.7541 9.70328 48.4147L9.56702 48.7817L9.80548 48.8381C10.2484 48.951 10.4528 48.9623 10.8559 48.9059C12.1845 48.7196 13.479 47.6638 14.0241 46.3145C14.1887 45.908 14.2853 45.2418 14.2285 44.8861L14.1887 44.6151L13.99 44.999Z" fill="white"/>
<path d="M64.7324 44.9087C64.5621 46.3484 65.7431 48.0703 67.3328 48.7027C67.9744 48.9567 68.5308 48.9962 69.1611 48.8382L69.3995 48.7817L69.2633 48.4147C69.0248 47.7542 68.599 47.2686 68.0085 46.9694C67.912 46.9186 67.6281 46.8226 67.3839 46.7605C67.1341 46.6984 66.7196 46.5403 66.4585 46.4105C65.8566 46.1225 65.2718 45.5636 64.9709 44.9934L64.7665 44.6038L64.7324 44.9087Z" fill="white"/>
<path d="M29.0873 66.2722C28.6046 66.419 28.1675 66.9835 27.9347 67.757C27.6053 68.8692 28.1902 69.7951 29.2349 69.7951C29.638 69.7951 29.8765 69.6935 30.166 69.4055C30.7168 68.8579 31.0291 67.7231 30.8076 67.0795C30.5919 66.4698 29.7402 66.0689 29.0873 66.2722Z" fill="#BD0707"/>
</svg>
